<svg xmlns="http://www.w3.org/2000/svg" viewBox="0 0 512 512" width="512" height="512"><path d="M372.8 93.4v-42.8c0-21.4-16.7-39.6-38.6-39.6h-169.9c-20.9 0-38.6 17.1-38.6 39.6v42.8h-114.7v407.6h490v-407.6h-128.2zm-228.4-42.8c0-11.8 9.4-20.3 19.8-20.3h169.9c11.5 0 19.8 9.6 19.8 20.3v42.8h-209.5v-42.8zm336.8 63.1v118.8h-48v-49.2h-79.2v49.2h-196v-49.2h-79.2v49.2h-48v-118.8h450.4zm-66.7 89.9v73.8h-40.7v-73.8h40.7zm-275.3 0v73.8h-40.6v-73.8h40.6zm-108.4 277.1v-227.9h48v44.9h79.2v-44.9h196v44.9h79.2v-44.9h48v227.9h-450.4z" fill="#414141"/></svg>