<svg xmlns="http://www.w3.org/2000/svg" viewBox="0 0 516.451 516.451" width="512" height="512" enable-background="new 0 0 516.451 516.451"><path d="M390.242 202.892h-84.075v-189.437c0-7.431-11.821-13.455-26.406-13.455h-46.213c-14.583 0-26.408 6.024-26.408 13.455v189.437h-84.071c-8.433 0-15.269 5.339-15.269 11.927 0 0 125.952 184.874 137.404 193.819 11.449 8.947 22.899 0 22.899 0l137.404-193.819c0-6.588-6.835-11.927-15.265-11.927zm18.409 294.431c0 10.565-7.475 19.128-16.7 19.128h-267.224c-9.221 0-16.7-8.563-16.7-19.128v-19.128c0-10.565 7.479-19.128 16.7-19.128h267.223c9.225 0 16.7 8.563 16.7 19.128l.001 19.128z" fill="#E85F61"/></svg>